<?xml version="1.0" encoding="utf-8"?>
<svg id="master-artboard" viewBox="0 0 612 792" version="1.1" xmlns="http://www.w3.org/2000/svg" x="0px" y="0px" style="enable-background:new 0 0 612 792;" width="612px" height="792px">

<path d="M 138 279 L 474 279 L 474 514.2000122070312 L 138 514.2000122070312 L 138 279 Z" class="st0" style="fill-rule: evenodd; clip-rule: evenodd; fill: rgb(0, 0, 0);" transform="matrix(1, 0, 0, 1, 0, 0)"/><path d="M 138 279 L 474 279 L 474 305.1000061035156 L 138 305.1000061035156 L 138 279 Z" class="st1" style="fill-rule: evenodd; clip-rule: evenodd;" transform="matrix(1, 0, 0, 1, 0, 0)"/><path class="st1" d="M168.3,325.8c5.9,0,13.7,1.7,18.1,6c3.3,3.3,3.3,8.7,0,12.1c-3.3,3.3-8.7,3.3-12.1,0&#10;&#9;&#9;C170,339.5,168.3,331.6,168.3,325.8L168.3,325.8z M214.1,325.8c-5.9,0-13.7,1.7-18.1,6c-3.3,3.3-3.3,8.7,0,12.1&#10;&#9;&#9;c3.3,3.3,8.7,3.3,12.1,0C212.4,339.5,214.1,331.6,214.1,325.8L214.1,325.8z M168.3,371.5c5.9,0,13.7-1.7,18.1-6&#10;&#9;&#9;c3.3-3.3,3.3-8.7,0-12.1c-3.3-3.3-8.7-3.3-12.1,0C170,357.8,168.3,365.7,168.3,371.5L168.3,371.5z M214.1,371.5&#10;&#9;&#9;c-5.9,0-13.7-1.7-18.1-6c-3.3-3.3-3.3-8.7,0-12.1c3.3-3.3,8.7-3.3,12.1,0C212.4,357.8,214.1,365.7,214.1,371.5L214.1,371.5z" style="fill-rule: evenodd; clip-rule: evenodd; fill: rgb(255, 255, 255);" transform="matrix(1, 0, 0, 1, 0, 0)"/><path class="st1" d="M417.2,334.4c-2-2-2-5.2,0-7.1c2-2,5.2-2,7.1,0l17.8,17.8c2,2,2,5.2,0,7.1l-17.8,17.8c-2,2-5.2,2-7.1,0&#10;&#9;&#9;c-2-2-2-5.2,0-7.1l14.3-14.3L417.2,334.4L417.2,334.4z M408.8,337.7c6,0,10.9,4.9,10.9,10.9c0,6-4.9,10.9-10.9,10.9&#10;&#9;&#9;c-6,0-10.9-4.9-10.9-10.9C397.9,342.6,402.8,337.7,408.8,337.7L408.8,337.7z" style="fill-rule: evenodd; clip-rule: evenodd; fill: rgb(255, 255, 255);" transform="matrix(1, 0, 0, 1, 0, 0)"/><path d="M409.3,395.4c-2-2-2-5.2,0-7.1c2-2,5.2-2,7.1,0l4.3,4.3l4.3-4.3c2-2,5.2-2,7.1,0c2,2,2,5.2,0,7.1l-7.9,7.9&#10;&#9;&#9;c-2,2-5.2,2-7.1,0L409.3,395.4L409.3,395.4z M416.5,431.1c-2,2-5.2,2-7.1,0c-2-2-2-5.2,0-7.1l7.9-7.9c2-2,5.2-2,7.1,0l7.9,7.9&#10;&#9;&#9;c2,2,2,5.2,0,7.1c-2,2-5.2,2-7.1,0l-4.3-4.3L416.5,431.1L416.5,431.1z M435.1,398.2c2-2,5.2-2,7.1,0c2,2,2,5.2,0,7.1l-4.3,4.3&#10;&#9;&#9;l4.3,4.3c2,2,2,5.2,0,7.1c-2,2-5.2,2-7.1,0l-7.9-7.9c-2-2-2-5.2,0-7.1L435.1,398.2L435.1,398.2z M399.4,405.3c-2-2-2-5.2,0-7.1&#10;&#9;&#9;c2-2,5.2-2,7.1,0l7.9,7.9c2,2,2,5.2,0,7.1l-7.9,7.9c-2,2-5.2,2-7.1,0c-2-2-2-5.2,0-7.1l4.3-4.3L399.4,405.3L399.4,405.3z" transform="matrix(1, 0, 0, 1, 0, 0)" style="fill: rgb(255, 255, 255);"/><path class="st1" d="M191.2,386.8c5.7,0,10.3,4.6,10.3,10.3v2.3h2.3c5.7,0,10.3,4.6,10.3,10.3c0,5.7-4.6,10.3-10.3,10.3h-2.3v2.3&#10;&#9;&#9;c0,5.7-4.6,10.3-10.3,10.3c-5.7,0-10.3-4.6-10.3-10.3V420h-2.3c-5.7,0-10.3-4.6-10.3-10.3c0-5.7,4.6-10.3,10.3-10.3h2.3v-2.3&#10;&#9;&#9;C180.9,391.4,185.5,386.8,191.2,386.8L191.2,386.8z" style="fill-rule: evenodd; clip-rule: evenodd; fill: rgb(255, 255, 255);" transform="matrix(1, 0, 0, 1, 0, 0)"/><path class="st1" d="M364.5,355c3.5-3.5,3.5-9.2,0-12.7c-3.5-3.5-9.2-3.5-12.7,0c-3.5,3.5-3.5,9.2,0,12.7&#10;&#9;&#9;C355.3,358.5,361,358.5,364.5,355L364.5,355z M350.6,368.9c3.5-3.5,3.5-9.2,0-12.7c-3.5-3.5-9.2-3.5-12.7,0&#10;&#9;&#9;c-3.5,3.5-3.5,9.2,0,12.7C341.4,372.4,347.1,372.4,350.6,368.9L350.6,368.9z M350.6,341.1c3.5-3.5,3.5-9.2,0-12.7&#10;&#9;&#9;c-3.5-3.5-9.2-3.5-12.7,0c-3.5,3.5-3.5,9.2,0,12.7C341.4,344.6,347.1,344.6,350.6,341.1L350.6,341.1z M336.7,355&#10;&#9;&#9;c3.5-3.5,3.5-9.2,0-12.7c-3.5-3.5-9.2-3.5-12.7,0c-3.5,3.5-3.5,9.2,0,12.7C327.5,358.5,333.2,358.5,336.7,355L336.7,355z" style="fill-rule: evenodd; clip-rule: evenodd; fill: rgb(255, 255, 255);" transform="matrix(1, 0, 0, 1, 0, 0)"/><path class="st1" d="M324.1,403l13.4-13.4c3.7-3.7,9.7-3.7,13.4,0l13.4,13.4c3.7,3.7,3.7,9.7,0,13.4L351,429.8&#10;&#9;&#9;c-3.7,3.7-9.7,3.7-13.4,0l-13.4-13.4C320.5,412.7,320.5,406.7,324.1,403L324.1,403z M344.3,401.2c4.7,0,8.5,3.8,8.5,8.5&#10;&#9;&#9;c0,4.7-3.8,8.5-8.5,8.5s-8.5-3.8-8.5-8.5C335.8,405,339.6,401.2,344.3,401.2L344.3,401.2z" style="fill-rule: evenodd; clip-rule: evenodd; fill: rgb(255, 255, 255);" transform="matrix(1, 0, 0, 1, 0, 0)"/><path class="st1" d="M192.7,449.3c0,14.2,5.6,19.9,19.9,19.9c0.8,0,1.5,0.7,1.5,1.5c0,0.8-0.7,1.5-1.5,1.5&#10;&#9;&#9;c-14.2,0-19.9,5.6-19.9,19.9c0,0.8-0.7,1.5-1.5,1.5c-0.8,0-1.5-0.7-1.5-1.5c0-14.3-5.6-19.9-19.9-19.9c-0.8,0-1.5-0.7-1.5-1.5&#10;&#9;&#9;c0-0.8,0.7-1.5,1.5-1.5c14.3,0,19.9-5.6,19.9-19.9c0-0.8,0.7-1.5,1.5-1.5C192.1,447.8,192.7,448.5,192.7,449.3L192.7,449.3z" style="fill-rule: evenodd; clip-rule: evenodd; fill: rgb(255, 255, 255);" transform="matrix(1, 0, 0, 1, 0, 0)"/><path class="st1" d="M288,429.7C287.9,429.8,287.9,429.8,288,429.7C287.9,429.8,287.9,429.8,288,429.7L288,429.7z M267.7,400.8&#10;&#9;&#9;l4.2-4.2l0-0.5c0-5.2,4.2-9.4,9.4-9.4c2.6,0,4.9,1,6.6,2.7c1.7,1.7,2.7,4,2.7,6.6c0,5.2-4.2,9.4-9.4,9.4l-0.5,0l-4.2,4.2l4.2,4.2&#10;&#9;&#9;l0.5,0c5.2,0,9.4,4.2,9.4,9.4c0,2.5-1,4.9-2.7,6.5l0,0c0,0,0,0,0,0c0,0,0,0,0,0c0,0,0,0,0,0c-1.7,1.6-4,2.7-6.5,2.7&#10;&#9;&#9;c-5.2,0-9.4-4.2-9.4-9.4l0-0.5l-4.2-4.2l-4.2,4.2l0,0.5c0,5.2-4.2,9.4-9.4,9.4c-2.6,0-4.9-1-6.6-2.7c-1.7-1.7-2.7-4-2.7-6.6&#10;&#9;&#9;c0-5.2,4.2-9.4,9.4-9.4l0.5,0l4.2-4.2l-4.2-4.2l-0.5,0c-5.2,0-9.4-4.2-9.4-9.4c0-2.5,1-4.9,2.7-6.5c0,0,0,0,0,0c0,0,0,0,0,0l0,0&#10;&#9;&#9;c0,0,0,0,0,0c1.7-1.6,4-2.7,6.5-2.7c5.2,0,9.4,4.2,9.4,9.4l0,0.5L267.7,400.8L267.7,400.8z" style="fill-rule: evenodd; clip-rule: evenodd; fill: rgb(255, 255, 255);" transform="matrix(1, 0, 0, 1, 0, 0)"/><path class="st1" d="M344.3,458.9c6.5,0,11.8,5.3,11.8,11.8c0,6.5-5.3,11.8-11.8,11.8c-6.5,0-11.8-5.3-11.8-11.8&#10;&#9;&#9;C332.5,464.2,337.8,458.9,344.3,458.9L344.3,458.9z M344.3,447.8c1.6,0,3,1.3,3,3c0,1.6-1.3,3-3,3c-1.6,0-3-1.3-3-3&#10;&#9;&#9;C341.3,449.1,342.6,447.8,344.3,447.8L344.3,447.8z M358.3,453.6c1.6,0,3,1.3,3,3s-1.3,3-3,3c-1.6,0-3-1.3-3-3&#10;&#9;&#9;S356.7,453.6,358.3,453.6L358.3,453.6z M364.2,467.7c1.6,0,3,1.3,3,3c0,1.6-1.3,3-3,3c-1.6,0-3-1.3-3-3&#10;&#9;&#9;C361.2,469.1,362.6,467.7,364.2,467.7L364.2,467.7z M358.3,481.8c1.6,0,3,1.3,3,3c0,1.6-1.3,3-3,3c-1.6,0-3-1.3-3-3&#10;&#9;&#9;C355.4,483.2,356.7,481.8,358.3,481.8L358.3,481.8z M344.3,487.7c1.6,0,3,1.3,3,3c0,1.6-1.3,3-3,3c-1.6,0-3-1.3-3-3&#10;&#9;&#9;C341.3,489,342.6,487.7,344.3,487.7L344.3,487.7z M330.2,453.6c-1.6,0-3,1.3-3,3c0,1.6,1.3,3,3,3c1.6,0,3-1.3,3-3&#10;&#9;&#9;C333.1,455,331.8,453.6,330.2,453.6L330.2,453.6z M324.3,467.7c-1.6,0-3,1.3-3,3c0,1.6,1.3,3,3,3c1.6,0,3-1.3,3-3&#10;&#9;&#9;C327.3,469.1,326,467.7,324.3,467.7L324.3,467.7z M330.2,481.8c-1.6,0-3,1.3-3,3s1.3,3,3,3c1.6,0,3-1.3,3-3&#10;&#9;&#9;S331.8,481.8,330.2,481.8L330.2,481.8z" style="fill-rule: evenodd; clip-rule: evenodd; fill: rgb(255, 255, 255);" transform="matrix(1, 0, 0, 1, 0, 0)"/><path class="st1" d="M411.6,447.9c3-0.7,6.4,2.8,7.4,7.9c1.1,5.1-0.5,9.9-3.6,10.6c-3,0.7-6.4-2.8-7.4-7.9&#10;&#9;&#9;C406.9,453.4,408.5,448.6,411.6,447.9L411.6,447.9z M400.3,461.5c2.6-1.4,6.4,1.1,8.4,5.5c2,4.4,1.5,9.1-1.1,10.5&#10;&#9;&#9;c-2.6,1.4-6.4-1.1-8.4-5.5C397.1,467.5,397.6,462.8,400.3,461.5L400.3,461.5z M430,447.9c-3-0.7-6.4,2.8-7.4,7.9&#10;&#9;&#9;c-1.1,5.1,0.5,9.9,3.6,10.6c3,0.7,6.4-2.8,7.4-7.9C434.6,453.4,433,448.6,430,447.9L430,447.9z M441.3,461.5&#10;&#9;&#9;c-2.6-1.4-6.4,1.1-8.4,5.5c-2,4.4-1.5,9.1,1.1,10.5c2.6,1.4,6.4-1.1,8.4-5.5C444.4,467.5,443.9,462.8,441.3,461.5L441.3,461.5z&#10;&#9;&#9; M413.7,474.7c4-3.9,7.1-3.5,7.1-3.5s3.1-0.4,7.1,3.5c4,3.9,10.9,15.6,6,18.1c-4.9,2.5-9.1-1.3-13.1-1.3c-4,0-8.2,3.7-13.1,1.3&#10;&#9;&#9;C402.8,490.3,409.6,478.5,413.7,474.7L413.7,474.7z" style="fill-rule: evenodd; clip-rule: evenodd; fill: rgb(255, 255, 255);" transform="matrix(1, 0, 0, 1, 0, 0)"/><path class="st1" d="M267.7,447.8c2.2,0,2.2,3.9,2.2,7.8c0,3.8,4.1,5.5,6.8,2.8c2.8-2.8,5.5-5.5,7.1-3.9c1.6,1.6-1.2,4.4-3.9,7.1&#10;&#9;&#9;c-2.7,2.7-0.9,6.8,2.8,6.8c3.9,0,7.8,0,7.8,2.2c0,2.2-3.9,2.2-7.8,2.2c-3.8,0-5.5,4.1-2.8,6.8c2.8,2.8,5.5,5.5,3.9,7.1&#10;&#9;&#9;c-1.6,1.6-4.4-1.2-7.1-3.9c-2.7-2.7-6.8-0.9-6.8,2.8c0,3.9,0,7.8-2.2,7.8c-2.2,0-2.2-3.9-2.2-7.8c0-3.8-4.1-5.5-6.8-2.8&#10;&#9;&#9;c-2.8,2.8-5.5,5.5-7.1,3.9c-1.6-1.6,1.2-4.4,3.9-7.1c2.7-2.7,0.9-6.8-2.8-6.8c-3.9,0-7.8,0-7.8-2.2c0-2.2,3.9-2.2,7.8-2.2&#10;&#9;&#9;c3.8,0,5.5-4.1,2.8-6.8c-2.8-2.8-5.5-5.5-3.9-7.1c1.6-1.6,4.4,1.2,7.1,3.9c2.7,2.7,6.8,0.9,6.8-2.8&#10;&#9;&#9;C265.5,451.7,265.5,447.8,267.7,447.8L267.7,447.8z M267.7,462.8c4.4,0,7.9,3.6,7.9,7.9s-3.6,7.9-7.9,7.9s-7.9-3.6-7.9-7.9&#10;&#9;&#9;S263.4,462.8,267.7,462.8L267.7,462.8z" style="fill-rule: evenodd; clip-rule: evenodd; fill: rgb(255, 255, 255);" transform="matrix(1, 0, 0, 1, 0, 0)"/><path class="st1" d="M288.1,328.3c3.3,3.3,3.3,8.7,0,12.1c-2.3,2.3-5.7,3.9-9.2,4.9c-0.5-1.8-1.5-3.4-2.9-4.8&#10;&#9;&#9;c-1.4-1.4-3.1-2.4-4.8-2.9c0.9-3.5,2.5-6.8,4.9-9.2C279.4,324.9,284.8,324.9,288.1,328.3L288.1,328.3z M259.4,328.3&#10;&#9;&#9;c2.3,2.3,3.9,5.7,4.9,9.2c-1.8,0.5-3.4,1.5-4.8,2.9c-1.4,1.4-2.4,3.1-2.9,4.8c-3.5-0.9-6.8-2.5-9.2-4.9c-3.3-3.3-3.3-8.7,0-12.1&#10;&#9;&#9;C250.7,324.9,256.1,324.9,259.4,328.3L259.4,328.3z M278.9,352.1c3.5,0.9,6.8,2.5,9.2,4.9c3.3,3.3,3.3,8.7,0,12.1&#10;&#9;&#9;c-3.3,3.3-8.7,3.3-12.1,0c-2.3-2.3-3.9-5.7-4.9-9.2c1.8-0.5,3.4-1.5,4.8-2.9C277.4,355.5,278.4,353.9,278.9,352.1L278.9,352.1z&#10;&#9;&#9; M259.5,356.9c1.4,1.4,3.1,2.4,4.8,2.9c-0.9,3.5-2.5,6.8-4.9,9.2c-3.3,3.3-8.7,3.3-12.1,0c-3.3-3.3-3.3-8.7,0-12.1&#10;&#9;&#9;c2.3-2.3,5.7-3.9,9.2-4.9C257.1,353.9,258.1,355.5,259.5,356.9L259.5,356.9z M274.1,355c3.5-3.5,3.5-9.2,0-12.7&#10;&#9;&#9;c-3.5-3.5-9.2-3.5-12.7,0c-3.5,3.5-3.5,9.2,0,12.7C264.9,358.5,270.6,358.5,274.1,355L274.1,355z" style="fill-rule: evenodd; clip-rule: evenodd; fill-opacity: 1; fill: rgb(255, 255, 255);" transform="matrix(1, 0, 0, 1, 0, 0)"/><path class="st2" d="M154,289.8h0.5c0.7,0,1.1-0.1,1.4-0.2c0.2-0.1,0.4-0.4,0.4-0.8c0-0.4-0.1-0.6-0.4-0.8&#10;&#9;&#9;c-0.2-0.2-0.7-0.2-1.4-0.2H154V289.8L154,289.8z M151.5,295.8v-10h2.7c1.1,0,1.9,0,2.4,0.1c0.4,0.1,0.8,0.2,1.2,0.4&#10;&#9;&#9;c0.4,0.2,0.6,0.5,0.8,0.8c0.2,0.3,0.3,0.7,0.3,1.2c0,0.6-0.1,1-0.4,1.4c-0.3,0.3-0.8,0.6-1.4,0.8c0.7,0.1,1.3,0.3,1.7,0.7&#10;&#9;&#9;c0.4,0.4,0.6,1,0.6,1.8c0,0.5-0.1,1-0.3,1.4c-0.2,0.4-0.5,0.7-1,0.9c-0.3,0.2-0.8,0.3-1.3,0.4c-0.5,0.1-1.3,0.1-2.5,0.1H151.5&#10;&#9;&#9;L151.5,295.8z M154,293.7h1c0.6,0,1.1-0.1,1.4-0.2s0.4-0.4,0.4-0.8c0-0.4-0.1-0.7-0.4-0.9c-0.2-0.2-0.7-0.2-1.4-0.2h-1V293.7&#10;&#9;&#9;L154,293.7z" style="fill: rgb(255, 255, 255);" transform="matrix(1, 0, 0, 1, 0, 0)"/><path class="st2" d="M161.3,285.8h2.7v4.9c0,0.7,0,1.2,0.1,1.5c0,0.3,0.1,0.6,0.2,0.8c0.1,0.3,0.3,0.5,0.5,0.6&#10;&#9;&#9;c0.3,0.1,0.6,0.2,0.9,0.2c0.4,0,0.7-0.1,0.9-0.2c0.3-0.1,0.4-0.3,0.5-0.6c0.1-0.2,0.1-0.5,0.2-0.8c0-0.3,0.1-0.8,0.1-1.5v-0.7v-4.2&#10;&#9;&#9;h2.7v5.3c0,1.1-0.1,1.9-0.2,2.4c-0.1,0.5-0.4,1-0.7,1.3c-0.3,0.4-0.8,0.7-1.4,0.9c-0.6,0.2-1.3,0.3-2.2,0.3c-0.9,0-1.6-0.1-2.2-0.3&#10;&#9;&#9;c-0.6-0.2-1.1-0.5-1.4-0.9c-0.3-0.4-0.5-0.8-0.7-1.3c-0.1-0.5-0.2-1.3-0.2-2.4v-1V285.8L161.3,285.8z" style="fill: rgb(255, 255, 255);" transform="matrix(1, 0, 0, 1, 0, 0)"/><path d="M 172.6999969482422 295.79998779296875 L 172.6999969482422 285.79998779296875 L 175.39999389648438 285.79998779296875 L 175.39999389648438 293.3999938964844 L 178.8000030517578 293.3999938964844 L 178.8000030517578 295.79998779296875 L 172.6999969482422 295.79998779296875 Z" class="st2" style="fill: rgb(255, 255, 255);" transform="matrix(1, 0, 0, 1, 0, 0)"/><path d="M 180.5 295.79998779296875 L 180.5 285.79998779296875 L 183.3000030517578 285.79998779296875 L 183.3000030517578 293.3999938964844 L 186.6999969482422 293.3999938964844 L 186.6999969482422 295.79998779296875 L 180.5 295.79998779296875 Z" class="st2" style="fill: rgb(255, 255, 255);" transform="matrix(1, 0, 0, 1, 0, 0)"/><path d="M 188.39999389648438 295.79998779296875 L 188.39999389648438 285.79998779296875 L 194.5 285.79998779296875 L 194.5 288 L 191 288 L 191 289.70001220703125 L 194.3000030517578 289.70001220703125 L 194.3000030517578 291.79998779296875 L 191 291.79998779296875 L 191 293.5 L 194.5 293.5 L 194.5 295.79998779296875 L 188.39999389648438 295.79998779296875 Z" class="st2" style="fill: rgb(255, 255, 255);" transform="matrix(1, 0, 0, 1, 0, 0)"/><path d="M 198.1999969482422 295.79998779296875 L 198.1999969482422 288.1000061035156 L 195.89999389648438 288.1000061035156 L 195.89999389648438 285.79998779296875 L 203.10000610351562 285.79998779296875 L 203.10000610351562 288.1000061035156 L 200.89999389648438 288.1000061035156 L 200.89999389648438 295.79998779296875 L 198.1999969482422 295.79998779296875 Z" class="st2" style="fill: rgb(255, 255, 255);" transform="matrix(1, 0, 0, 1, 0, 0)"/><path class="st2" d="M216.2,295.8h-2.6v-10h2.9c1.1,0,1.9,0.1,2.4,0.2c0.5,0.1,0.8,0.3,1.1,0.6c0.4,0.3,0.7,0.7,0.8,1.1&#10;&#9;&#9;c0.2,0.5,0.3,1,0.3,1.5c0,0.6-0.1,1.1-0.3,1.6c-0.2,0.5-0.5,0.8-0.8,1.1c-0.3,0.2-0.6,0.4-1,0.5c-0.4,0.1-1,0.1-1.8,0.1h-0.5h-0.5&#10;&#9;&#9;V295.8L216.2,295.8z M216.2,290.3h0.5c0.7,0,1.1-0.1,1.4-0.3c0.3-0.2,0.4-0.5,0.4-0.9c0-0.4-0.1-0.7-0.4-0.9&#10;&#9;&#9;c-0.3-0.2-0.7-0.3-1.4-0.3h-0.5V290.3L216.2,290.3z" style="fill: rgb(255, 255, 255);" transform="matrix(1, 0, 0, 1, 0, 0)"/><path class="st2" d="M233.2,290.8c0,0.7-0.1,1.4-0.4,2c-0.3,0.6-0.6,1.2-1.2,1.7c-0.5,0.5-1.1,0.9-1.7,1.1c-0.7,0.3-1.3,0.4-2,0.4&#10;&#9;&#9;c-0.7,0-1.4-0.1-2.1-0.4c-0.7-0.3-1.2-0.6-1.7-1.1c-0.5-0.5-0.9-1.1-1.2-1.7c-0.3-0.6-0.4-1.3-0.4-2c0-0.7,0.1-1.4,0.4-2&#10;&#9;&#9;c0.3-0.6,0.7-1.2,1.2-1.7c0.5-0.5,1.1-0.9,1.7-1.1c0.7-0.3,1.3-0.4,2.1-0.4c0.7,0,1.4,0.1,2.1,0.4c0.7,0.3,1.2,0.6,1.7,1.1&#10;&#9;&#9;c0.5,0.5,0.9,1.1,1.2,1.7C233,289.4,233.2,290.1,233.2,290.8L233.2,290.8z M227.8,293.7c0.8,0,1.4-0.3,1.9-0.8&#10;&#9;&#9;c0.5-0.6,0.7-1.3,0.7-2.1c0-0.8-0.2-1.5-0.8-2.1c-0.5-0.6-1.1-0.8-1.9-0.8c-0.8,0-1.4,0.3-1.9,0.8c-0.5,0.6-0.7,1.3-0.7,2.1&#10;&#9;&#9;c0,0.9,0.2,1.6,0.7,2.1C226.4,293.5,227.1,293.7,227.8,293.7L227.8,293.7z" style="fill: rgb(255, 255, 255);" transform="matrix(1, 0, 0, 1, 0, 0)"/><path d="M 235.39999389648438 295.79998779296875 L 235.39999389648438 285.79998779296875 L 238.10000610351562 285.79998779296875 L 238.10000610351562 295.79998779296875 L 235.39999389648438 295.79998779296875 Z" class="st2" style="fill: rgb(255, 255, 255);" transform="matrix(1, 0, 0, 1, 0, 0)"/><path class="st2" d="M240.7,295.8v-10h2.6l3.8,5.1c0.1,0.1,0.2,0.3,0.4,0.6c0.2,0.3,0.3,0.7,0.5,1.1c-0.1-0.4-0.1-0.8-0.1-1.1&#10;&#9;&#9;c0-0.3,0-0.6,0-0.9v-4.9h2.6v10h-2.6l-3.8-5.2c-0.1-0.1-0.2-0.3-0.4-0.6c-0.2-0.3-0.3-0.7-0.5-1.1c0.1,0.4,0.1,0.8,0.1,1.1&#10;&#9;&#9;c0,0.3,0,0.6,0,0.9v4.9H240.7L240.7,295.8z" style="fill: rgb(255, 255, 255);" transform="matrix(1, 0, 0, 1, 0, 0)"/><path d="M 254.5 295.79998779296875 L 254.5 288.1000061035156 L 252.1999969482422 288.1000061035156 L 252.1999969482422 285.79998779296875 L 259.5 285.79998779296875 L 259.5 288.1000061035156 L 257.20001220703125 288.1000061035156 L 257.20001220703125 295.79998779296875 L 254.5 295.79998779296875 Z" class="st2" style="fill: rgb(255, 255, 255);" transform="matrix(1, 0, 0, 1, 0, 0)"/><path class="st2" d="M261.6,292.5c0.4,0.5,0.8,0.8,1.2,1c0.4,0.2,0.8,0.3,1.2,0.3c0.4,0,0.7-0.1,0.9-0.3c0.2-0.2,0.4-0.4,0.4-0.7&#10;&#9;&#9;c0-0.3-0.1-0.6-0.3-0.8s-0.7-0.4-1.4-0.6c-1-0.3-1.7-0.6-2.1-1c-0.4-0.4-0.6-1-0.6-1.7c0-1,0.3-1.7,1-2.3c0.6-0.6,1.5-0.9,2.5-0.9&#10;&#9;&#9;c0.6,0,1.1,0.1,1.6,0.2c0.5,0.1,1,0.4,1.4,0.7l-0.9,2c-0.3-0.3-0.6-0.5-1-0.6c-0.3-0.1-0.6-0.2-1-0.2c-0.3,0-0.6,0.1-0.8,0.2&#10;&#9;&#9;c-0.2,0.2-0.3,0.4-0.3,0.6c0,0.3,0.1,0.5,0.3,0.6c0.2,0.2,0.5,0.3,1,0.4l0.1,0c1.1,0.3,1.8,0.6,2.2,1c0.2,0.2,0.4,0.5,0.5,0.9&#10;&#9;&#9;c0.1,0.3,0.2,0.7,0.2,1.1c0,1.1-0.3,1.9-1,2.6c-0.7,0.6-1.6,1-2.8,1c-0.7,0-1.3-0.1-1.9-0.4c-0.6-0.2-1.1-0.6-1.7-1.1L261.6,292.5&#10;&#9;&#9;L261.6,292.5z" style="fill: rgb(255, 255, 255);" transform="matrix(1, 0, 0, 1, 0, 0)"/><path class="st2" d="M285.4,295.8l-0.9-1c-0.5,0.4-1,0.8-1.5,1c-0.5,0.2-1.1,0.3-1.8,0.3c-0.9,0-1.6-0.3-2.2-0.8&#10;&#9;&#9;c-0.6-0.5-0.8-1.2-0.8-2c0-0.6,0.2-1.2,0.6-1.7c0.4-0.5,1-0.9,1.8-1.4c-0.3-0.4-0.5-0.7-0.7-1c-0.2-0.3-0.2-0.7-0.2-1&#10;&#9;&#9;c0-0.7,0.3-1.2,0.8-1.7c0.5-0.5,1.2-0.7,2-0.7c0.9,0,1.6,0.2,2.2,0.7c0.5,0.4,0.8,1,0.8,1.8c0,0.5-0.1,0.9-0.4,1.4&#10;&#9;&#9;c-0.3,0.4-0.7,0.8-1.3,1.2l1.2,1.2c0.2-0.2,0.5-0.4,0.7-0.6c0.2-0.2,0.5-0.5,0.7-0.8l1.4,1.5c-0.2,0.3-0.5,0.6-0.7,0.8&#10;&#9;&#9;c-0.2,0.2-0.5,0.4-0.7,0.6l2.2,2.2H285.4L285.4,295.8z M283.1,293.4l-1.6-1.8c-0.3,0.3-0.5,0.5-0.7,0.8c-0.1,0.2-0.2,0.5-0.2,0.7&#10;&#9;&#9;c0,0.3,0.1,0.5,0.3,0.7c0.2,0.2,0.5,0.3,0.8,0.3c0.2,0,0.5-0.1,0.7-0.2C282.6,293.8,282.9,293.6,283.1,293.4L283.1,293.4z&#10;&#9;&#9; M282.4,289.6l0.3-0.3c0.2-0.2,0.4-0.4,0.5-0.6c0.1-0.2,0.2-0.4,0.2-0.6c0-0.2-0.1-0.4-0.2-0.6c-0.2-0.2-0.4-0.2-0.6-0.2&#10;&#9;&#9;c-0.3,0-0.5,0.1-0.7,0.2c-0.2,0.2-0.2,0.4-0.2,0.6c0,0.1,0,0.2,0.1,0.4c0.1,0.2,0.2,0.3,0.3,0.4L282.4,289.6L282.4,289.6z" style="fill: rgb(255, 255, 255);" transform="matrix(1, 0, 0, 1, 0, 0)"/><path d="M 299 295.79998779296875 L 299 285.79998779296875 L 301.79998779296875 285.79998779296875 L 301.79998779296875 295.79998779296875 L 299 295.79998779296875 Z" class="st2" style="fill: rgb(255, 255, 255);" transform="matrix(1, 0, 0, 1, 0, 0)"/><path class="st2" d="M311.6,286.2v3c-0.4-0.4-0.7-0.7-1.1-0.9c-0.4-0.2-0.8-0.3-1.2-0.3c-0.8,0-1.4,0.3-1.9,0.8&#10;&#9;&#9;c-0.5,0.5-0.7,1.2-0.7,2.1c0,0.8,0.2,1.5,0.7,2c0.5,0.5,1.1,0.8,1.9,0.8c0.4,0,0.8-0.1,1.2-0.3c0.4-0.2,0.7-0.5,1.1-0.9v3&#10;&#9;&#9;c-0.4,0.2-0.9,0.4-1.3,0.5c-0.4,0.1-0.9,0.2-1.3,0.2c-0.5,0-1.1-0.1-1.5-0.2c-0.5-0.1-0.9-0.3-1.3-0.6c-0.7-0.5-1.3-1.1-1.7-1.9&#10;&#9;&#9;c-0.4-0.8-0.6-1.6-0.6-2.6c0-0.8,0.1-1.5,0.4-2.1c0.2-0.6,0.6-1.2,1.1-1.7c0.5-0.5,1-0.9,1.6-1.1c0.6-0.2,1.3-0.4,2-0.4&#10;&#9;&#9;c0.4,0,0.9,0.1,1.3,0.2C310.7,285.8,311.2,285.9,311.6,286.2L311.6,286.2z" style="fill: rgb(255, 255, 255);" transform="matrix(1, 0, 0, 1, 0, 0)"/><path class="st2" d="M323.8,290.8c0,0.7-0.1,1.4-0.4,2c-0.3,0.6-0.6,1.2-1.2,1.7c-0.5,0.5-1.1,0.9-1.7,1.1c-0.7,0.3-1.3,0.4-2,0.4&#10;&#9;&#9;c-0.7,0-1.4-0.1-2.1-0.4c-0.7-0.3-1.2-0.6-1.7-1.1c-0.5-0.5-0.9-1.1-1.2-1.7c-0.3-0.6-0.4-1.3-0.4-2c0-0.7,0.1-1.4,0.4-2&#10;&#9;&#9;c0.3-0.6,0.7-1.2,1.2-1.7c0.5-0.5,1.1-0.9,1.7-1.1c0.7-0.3,1.3-0.4,2.1-0.4c0.7,0,1.4,0.1,2.1,0.4c0.7,0.3,1.2,0.6,1.7,1.1&#10;&#9;&#9;c0.5,0.5,0.9,1.1,1.2,1.7C323.7,289.4,323.8,290.1,323.8,290.8L323.8,290.8z M318.5,293.7c0.8,0,1.4-0.3,1.9-0.8&#10;&#9;&#9;c0.5-0.6,0.7-1.3,0.7-2.1c0-0.8-0.2-1.5-0.8-2.1c-0.5-0.6-1.1-0.8-1.9-0.8c-0.8,0-1.4,0.3-1.9,0.8c-0.5,0.6-0.7,1.3-0.7,2.1&#10;&#9;&#9;c0,0.9,0.2,1.6,0.7,2.1C317.1,293.5,317.7,293.7,318.5,293.7L318.5,293.7z" style="fill: rgb(255, 255, 255);" transform="matrix(1, 0, 0, 1, 0, 0)"/><path class="st2" d="M325.9,295.8v-10h2.6l3.8,5.1c0.1,0.1,0.2,0.3,0.4,0.6c0.2,0.3,0.3,0.7,0.5,1.1c-0.1-0.4-0.1-0.8-0.1-1.1&#10;&#9;&#9;c0-0.3,0-0.6,0-0.9v-4.9h2.6v10h-2.6l-3.8-5.2c-0.1-0.1-0.2-0.3-0.4-0.6c-0.2-0.3-0.3-0.7-0.5-1.1c0.1,0.4,0.1,0.8,0.1,1.1&#10;&#9;&#9;c0,0.3,0,0.6,0,0.9v4.9H325.9L325.9,295.8z" style="fill: rgb(255, 255, 255);" transform="matrix(1, 0, 0, 1, 0, 0)"/><path class="st2" d="M338.7,292.5c0.4,0.5,0.8,0.8,1.2,1c0.4,0.2,0.8,0.3,1.2,0.3c0.4,0,0.7-0.1,0.9-0.3c0.2-0.2,0.4-0.4,0.4-0.7&#10;&#9;&#9;c0-0.3-0.1-0.6-0.3-0.8c-0.2-0.2-0.7-0.4-1.4-0.6c-1-0.3-1.7-0.6-2.1-1c-0.4-0.4-0.6-1-0.6-1.7c0-1,0.3-1.7,1-2.3&#10;&#9;&#9;c0.6-0.6,1.5-0.9,2.5-0.9c0.6,0,1.1,0.1,1.6,0.2c0.5,0.1,1,0.4,1.4,0.7l-0.9,2c-0.3-0.3-0.6-0.5-1-0.6c-0.3-0.1-0.6-0.2-1-0.2&#10;&#9;&#9;c-0.3,0-0.6,0.1-0.8,0.2c-0.2,0.2-0.3,0.4-0.3,0.6c0,0.3,0.1,0.5,0.3,0.6c0.2,0.2,0.5,0.3,1,0.4l0.1,0c1.1,0.3,1.8,0.6,2.2,1&#10;&#9;&#9;c0.2,0.2,0.4,0.5,0.5,0.9c0.1,0.3,0.2,0.7,0.2,1.1c0,1.1-0.3,1.9-1,2.6c-0.7,0.6-1.6,1-2.8,1c-0.7,0-1.3-0.1-1.9-0.4&#10;&#9;&#9;c-0.6-0.2-1.1-0.6-1.7-1.1L338.7,292.5L338.7,292.5z" style="fill: rgb(255, 255, 255);" transform="matrix(1, 0, 0, 1, 0, 0)"/><path d="M 357.20001220703125 285.1000061035156 L 358.79998779296875 285.1000061035156 L 358.79998779296875 299.1000061035156 L 357.20001220703125 299.1000061035156 L 357.20001220703125 285.1000061035156 Z" class="st2" style="fill: rgb(255, 255, 255);" transform="matrix(1, 0, 0, 1, 0, 0)"/><path d="M 371.20001220703125 295.79998779296875 L 372.5 285.79998779296875 L 377.70001220703125 285.79998779296875 L 377.5 286.8999938964844 L 373.6000061035156 286.8999938964844 L 373.20001220703125 289.79998779296875 L 377.1000061035156 289.79998779296875 L 377 290.8999938964844 L 373 290.8999938964844 L 372.3999938964844 295.79998779296875 L 371.20001220703125 295.79998779296875 Z" class="st2" style="fill: rgb(255, 255, 255);" transform="matrix(1, 0, 0, 1, 0, 0)"/><path class="st2" d="M380.4,290.2h0.8c0.5,0,0.9,0,1.1-0.1c0.2,0,0.5-0.1,0.7-0.2c0.3-0.1,0.5-0.3,0.7-0.6c0.2-0.3,0.2-0.6,0.2-1&#10;&#9;&#9;c0-0.6-0.2-1-0.5-1.2c-0.4-0.2-1-0.3-2-0.3h-0.5L380.4,290.2L380.4,290.2z M378.5,295.8l1.3-10h1.6c0.9,0,1.5,0,1.9,0.1&#10;&#9;&#9;c0.4,0.1,0.7,0.2,1,0.5c0.3,0.2,0.5,0.5,0.7,0.9c0.2,0.3,0.2,0.7,0.2,1.1c0,0.8-0.3,1.5-0.8,2c-0.6,0.5-1.3,0.7-2.2,0.8l3.1,4.6&#10;&#9;&#9;h-1.4l-2.9-4.6h-0.5l-0.6,4.6H378.5L378.5,295.8z" style="fill: rgb(255, 255, 255);" transform="matrix(1, 0, 0, 1, 0, 0)"/><path d="M 392.1000061035156 294.70001220703125 L 391.8999938964844 295.79998779296875 L 386.6000061035156 295.79998779296875 L 387.8999938964844 285.79998779296875 L 393 285.79998779296875 L 392.8999938964844 286.8999938964844 L 388.8999938964844 286.8999938964844 L 388.5 289.79998779296875 L 392.5 289.79998779296875 L 392.29998779296875 290.8999938964844 L 388.3999938964844 290.8999938964844 L 387.8999938964844 294.70001220703125 L 392.1000061035156 294.70001220703125 Z" class="st2" style="fill: rgb(255, 255, 255);" transform="matrix(1, 0, 0, 1, 0, 0)"/><path d="M 399.6000061035156 294.70001220703125 L 399.5 295.79998779296875 L 394.1000061035156 295.79998779296875 L 395.3999938964844 285.79998779296875 L 400.6000061035156 285.79998779296875 L 400.5 286.8999938964844 L 396.5 286.8999938964844 L 396.1000061035156 289.79998779296875 L 400.1000061035156 289.79998779296875 L 399.8999938964844 290.8999938964844 L 396 290.8999938964844 L 395.3999938964844 294.70001220703125 L 399.6000061035156 294.70001220703125 Z" class="st2" style="fill: rgb(255, 255, 255);" transform="matrix(1, 0, 0, 1, 0, 0)"/><path d="M 409.6000061035156 285.79998779296875 L 410.8999938964844 285.79998779296875 L 412.70001220703125 293.29998779296875 L 416.5 285.79998779296875 L 417.8999938964844 285.79998779296875 L 412.3999938964844 296.20001220703125 L 409.6000061035156 285.79998779296875 Z" class="st2" style="fill: rgb(255, 255, 255);" transform="matrix(1, 0, 0, 1, 0, 0)"/><path d="M 423.5 294.70001220703125 L 423.29998779296875 295.79998779296875 L 418 295.79998779296875 L 419.29998779296875 285.79998779296875 L 424.5 285.79998779296875 L 424.29998779296875 286.8999938964844 L 420.29998779296875 286.8999938964844 L 420 289.79998779296875 L 423.8999938964844 289.79998779296875 L 423.79998779296875 290.8999938964844 L 419.79998779296875 290.8999938964844 L 419.29998779296875 294.70001220703125 L 423.5 294.70001220703125 Z" class="st2" style="fill: rgb(255, 255, 255);" transform="matrix(1, 0, 0, 1, 0, 0)"/><path class="st2" d="M433.9,287.8c-0.5-0.4-0.9-0.7-1.4-0.9c-0.5-0.2-1-0.3-1.5-0.3c-0.6,0-1.1,0.1-1.6,0.3&#10;&#9;&#9;c-0.5,0.2-0.9,0.5-1.3,0.9c-0.4,0.4-0.7,0.9-0.9,1.5c-0.2,0.6-0.3,1.2-0.3,1.8c0,1.2,0.3,2.1,1,2.8c0.7,0.7,1.6,1,2.7,1&#10;&#9;&#9;c0.4,0,0.9-0.1,1.3-0.2c0.4-0.1,0.9-0.4,1.4-0.7l-0.3,1.4c-0.4,0.2-0.8,0.4-1.3,0.5c-0.4,0.1-0.9,0.2-1.4,0.2&#10;&#9;&#9;c-1.4,0-2.6-0.5-3.4-1.4c-0.9-0.9-1.3-2.1-1.3-3.5c0-0.8,0.1-1.6,0.4-2.3c0.3-0.7,0.7-1.3,1.2-1.9c0.5-0.5,1-0.8,1.7-1.1&#10;&#9;&#9;c0.6-0.2,1.3-0.4,2-0.4c0.6,0,1.2,0.1,1.7,0.3c0.5,0.2,1,0.5,1.5,0.8L433.9,287.8L433.9,287.8z" style="fill: rgb(255, 255, 255);" transform="matrix(1, 0, 0, 1, 0, 0)"/><path d="M 436.8999938964844 295.79998779296875 L 438.1000061035156 286.8999938964844 L 435.6000061035156 286.8999938964844 L 435.70001220703125 285.79998779296875 L 442 285.79998779296875 L 441.8999938964844 286.8999938964844 L 439.29998779296875 286.8999938964844 L 438.1000061035156 295.79998779296875 L 436.8999938964844 295.79998779296875 Z" class="st2" style="fill: rgb(255, 255, 255);" transform="matrix(1, 0, 0, 1, 0, 0)"/><path class="st2" d="M452.1,290.4c0-1.1-0.4-2.1-1.1-2.8c-0.7-0.7-1.6-1.1-2.8-1.1c-0.6,0-1.1,0.1-1.6,0.3c-0.5,0.2-1,0.5-1.3,0.9&#10;&#9;&#9;c-0.4,0.4-0.8,1-1,1.5c-0.2,0.6-0.4,1.2-0.4,1.8c0,1.1,0.3,2.1,1,2.8c0.7,0.7,1.6,1,2.8,1c0.6,0,1.1-0.1,1.7-0.3&#10;&#9;&#9;c0.5-0.2,1-0.5,1.4-0.9c0.4-0.4,0.8-0.9,1-1.5C452,291.6,452.1,291,452.1,290.4L452.1,290.4z M448.4,285.5c1.5,0,2.7,0.4,3.6,1.3&#10;&#9;&#9;c0.9,0.9,1.4,2.1,1.4,3.5c0,0.8-0.1,1.5-0.4,2.2c-0.3,0.7-0.7,1.3-1.3,1.8c-0.5,0.5-1.1,0.9-1.8,1.1c-0.7,0.3-1.4,0.4-2.2,0.4&#10;&#9;&#9;c-1.4,0-2.6-0.5-3.5-1.4c-0.9-0.9-1.3-2.1-1.3-3.5c0-0.8,0.1-1.6,0.4-2.3c0.3-0.7,0.7-1.3,1.2-1.8c0.5-0.5,1.1-0.9,1.8-1.1&#10;&#9;&#9;C446.9,285.7,447.6,285.5,448.4,285.5L448.4,285.5z" style="fill: rgb(255, 255, 255);" transform="matrix(1, 0, 0, 1, 0, 0)"/><path class="st2" d="M456.8,290.2h0.8c0.5,0,0.9,0,1.1-0.1c0.2,0,0.5-0.1,0.7-0.2c0.3-0.1,0.5-0.3,0.7-0.6c0.2-0.3,0.2-0.6,0.2-1&#10;&#9;&#9;c0-0.6-0.2-1-0.5-1.2c-0.4-0.2-1-0.3-2-0.3h-0.5L456.8,290.2L456.8,290.2z M454.9,295.8l1.3-10h1.6c0.9,0,1.5,0,1.9,0.1&#10;&#9;&#9;c0.4,0.1,0.7,0.2,1,0.5c0.3,0.2,0.5,0.5,0.7,0.9c0.2,0.3,0.2,0.7,0.2,1.1c0,0.8-0.3,1.5-0.8,2c-0.6,0.5-1.3,0.7-2.2,0.8l3.1,4.6&#10;&#9;&#9;h-1.4l-2.9-4.6h-0.5l-0.6,4.6H454.9L454.9,295.8z" style="fill: rgb(255, 255, 255);" transform="matrix(1, 0, 0, 1, 0, 0)"/>
</svg>